<svg xmlns="http://www.w3.org/2000/svg" width="550" height="538" viewBox="0 0 550 538">
<g>
<path d="M 98.42 400.23 C89.22,423.59 87.19,427.96 85.50,427.97 C82.93,428.00 76.29,420.12 64.75,403.39 C62.13,399.60 58.65,394.70 57.02,392.50 C55.38,390.30 53.08,386.66 51.90,384.42 L 49.76 380.33 L 56.27 368.92 C59.86,362.64 70.28,344.46 79.45,328.53 C94.94,301.58 95.98,299.46 94.30,298.20 C90.60,295.43 89.15,294.96 88.32,296.25 C87.88,296.94 78.40,313.48 67.24,333.00 C56.09,352.52 46.41,368.50 45.73,368.50 C43.29,368.50 34.00,346.20 34.00,340.34 C34.00,339.19 37.65,331.78 42.10,323.87 C76.40,263.04 88.87,241.23 93.51,234.00 C107.02,212.94 114.66,201.68 132.22,177.00 C157.74,141.10 159.95,137.66 162.68,137.17 C163.22,137.08 163.79,137.10 164.56,137.00 C166.86,136.72 171.67,134.64 175.69,132.21 C179.58,129.84 191.26,124.04 201.63,119.31 C216.23,112.66 221.52,110.71 225.00,110.68 C228.63,110.66 232.50,112.14 245.00,118.32 C253.52,122.54 261.70,127.01 263.18,128.25 L 265.85 130.50 L 262.81 142.70 C259.81,154.70 259.65,159.96 262.27,160.03 C262.95,160.05 264.83,161.23 266.45,162.65 C269.27,165.13 269.31,165.30 267.50,166.62 C266.47,167.38 264.69,167.99 263.56,167.98 C260.73,167.95 253.00,164.34 253.00,163.05 C253.00,162.47 252.38,162.00 251.62,162.00 C250.86,162.00 248.58,159.98 246.55,157.50 C243.13,153.32 242.53,153.00 238.15,153.00 C235.56,153.00 231.07,152.39 228.18,151.64 C222.97,150.29 222.90,150.30 219.21,153.25 C217.17,154.89 212.99,157.94 209.92,160.04 C204.42,163.79 204.27,164.03 199.59,176.17 C192.41,194.78 192.30,195.31 194.34,199.59 C196.92,205.00 200.96,209.93 204.17,211.59 C205.74,212.40 212.30,214.42 218.76,216.08 C247.22,223.40 264.19,231.49 269.47,240.27 C271.00,242.80 271.00,243.47 269.58,248.37 C268.73,251.31 268.13,255.47 268.26,257.61 C268.49,261.38 268.41,261.49 265.50,261.19 C262.41,260.86 261.68,260.46 255.75,255.74 C253.38,253.85 247.90,251.74 238.39,249.05 C211.44,241.43 200.58,241.53 187.42,249.52 C180.22,253.89 171.95,257.67 164.50,259.99 C159.76,261.47 150.57,268.09 148.84,271.26 C148.16,272.49 147.29,276.13 146.90,279.35 C146.51,282.57 145.74,285.66 145.19,286.21 C144.24,287.16 128.73,278.86 118.50,271.93 C113.18,268.32 87.86,253.78 87.60,254.18 C85.63,257.26 71.96,281.16 71.77,281.87 C71.49,282.88 87.98,292.98 115.29,308.52 C128.56,316.07 131.01,317.82 130.63,319.50 C130.39,320.60 125.50,332.98 119.76,347.00 C114.03,361.02 104.43,384.98 98.42,400.23 ZM 320.65 418.83 C320.02,419.33 316.25,419.97 312.28,420.24 C305.92,420.67 304.85,420.49 303.28,418.69 C302.30,417.57 302.01,416.95 302.63,417.31 C304.63,418.48 305.00,412.53 305.00,379.10 C305.00,350.90 304.78,346.14 303.41,344.18 C300.84,340.51 303.01,339.00 310.87,339.00 L 317.50 339.00 L 317.16 358.00 L 316.82 377.00 L 319.36 377.00 C326.06,377.00 329.77,372.58 330.71,363.50 C331.49,355.97 329.48,348.59 325.83,345.51 C324.19,344.13 323.12,343.00 323.46,343.00 C323.80,343.00 323.59,342.10 323.00,341.00 C321.67,338.51 322.73,338.43 329.57,340.48 C338.73,343.23 343.00,349.07 343.00,358.89 C343.00,362.18 342.52,366.14 341.94,367.68 C340.53,371.41 336.21,375.94 332.56,377.51 L 329.62 378.78 L 334.09 380.81 C342.14,384.48 345.04,389.67 344.92,400.20 C344.82,409.30 342.31,414.49 336.50,417.62 C332.56,419.74 323.13,422.00 325.85,420.17 C326.85,419.49 326.52,419.10 324.50,418.59 C323.02,418.22 321.29,418.33 320.65,418.83 ZM 207.70 418.28 C206.16,420.21 200.70,420.95 198.15,419.57 C196.32,418.58 196.27,418.21 197.53,414.57 C199.10,410.03 199.14,404.05 197.81,372.61 C197.09,355.53 197.13,349.54 197.99,349.01 C198.76,348.53 198.04,347.19 195.86,345.01 C190.36,339.51 190.88,339.00 202.11,339.00 C211.46,339.00 212.10,339.13 212.99,341.25 C213.51,342.49 216.24,350.02 219.06,358.00 C221.88,365.98 225.46,375.88 227.03,380.00 L 229.87 387.50 L 229.92 367.50 C229.98,345.80 229.70,343.42 227.07,342.73 C226.12,342.48 225.33,341.52 225.33,340.59 C225.33,339.18 226.23,338.96 230.92,339.21 L 236.50 339.50 L 236.86 344.00 C237.14,347.50 237.40,348.06 238.04,346.50 C238.49,345.40 238.82,361.83 238.77,383.00 C238.72,404.17 238.49,419.96 238.26,418.09 C237.85,414.70 237.84,414.69 236.65,417.09 C235.27,419.86 231.61,420.75 229.34,418.87 C227.45,417.30 223.02,407.51 222.76,404.32 C222.65,403.04 222.25,402.00 221.86,402.00 C221.14,402.00 219.47,396.09 219.81,394.75 C219.91,394.34 219.60,394.00 219.11,394.00 C218.62,394.00 217.92,392.82 217.56,391.38 C217.20,389.94 214.56,382.40 211.70,374.63 L 206.50 360.50 L 206.23 386.40 C206.01,407.78 206.22,412.69 207.43,414.53 C208.58,416.29 208.64,417.09 207.70,418.28 ZM 293.66 419.44 C292.80,421.68 280.79,421.65 278.54,419.39 C277.36,418.22 277.22,417.44 278.00,416.50 C278.77,415.57 278.62,413.21 277.46,408.10 L 275.84 401.00 L 262.26 401.00 L 261.02 405.43 C260.34,407.87 259.95,411.66 260.16,413.85 C260.37,416.04 260.24,417.65 259.87,417.42 C259.51,417.20 258.99,417.58 258.72,418.28 C258.07,419.98 253.04,420.32 250.26,418.86 C248.53,417.94 248.28,417.37 249.15,416.32 C249.76,415.58 251.80,407.67 253.66,398.74 C257.78,379.08 257.49,380.51 260.51,364.50 C261.86,357.35 263.51,348.69 264.17,345.25 L 265.37 339.00 L 269.43 339.02 C271.67,339.02 274.04,339.37 274.70,339.79 C275.36,340.21 277.70,348.87 279.91,359.03 C290.99,410.00 291.72,413.94 294.08,416.12 C294.43,416.43 294.81,416.72 295.26,417.10 C296.65,418.28 296.88,418.79 295.88,418.44 C294.93,418.12 294.01,418.53 293.66,419.44 ZM 148.25 422.01 C147.29,422.02 145.60,422.20 144.50,422.42 C141.60,422.99 134.65,421.44 134.21,420.12 C134.00,419.51 133.23,419.00 132.48,419.00 C130.93,419.00 126.77,413.57 127.64,412.69 C127.97,412.37 127.18,410.41 125.90,408.35 C123.78,404.91 123.58,403.44 123.55,391.04 C123.51,377.96 123.61,377.29 126.51,371.50 C130.41,363.68 134.50,361.23 143.14,361.56 C150.18,361.82 153.36,363.69 156.26,369.26 C158.31,373.23 160.59,386.03 159.66,388.44 C159.21,389.61 156.75,389.99 148.29,390.22 L 137.50 390.50 L 137.19 397.50 C136.79,406.69 137.54,410.30 140.63,413.97 C143.37,417.23 147.98,418.02 152.32,415.97 C154.45,414.96 154.45,414.98 152.25,416.59 C151.01,417.50 150.00,419.09 150.00,420.12 C150.00,421.24 149.29,422.01 148.25,422.01 ZM 436.12 418.85 C434.68,419.39 427.36,420.09 419.86,420.41 C405.37,421.01 403.13,420.42 404.38,416.30 C405.74,411.80 405.96,406.62 406.03,378.07 C406.10,348.05 406.07,347.59 403.86,344.57 C402.07,342.11 401.99,341.80 403.50,343.00 C404.54,343.83 405.07,343.98 404.69,343.34 C404.31,342.70 404.27,341.46 404.60,340.59 C405.46,338.35 417.19,338.33 419.43,340.57 C421.40,342.54 421.42,343.63 419.50,344.36 C418.25,344.84 418.00,347.64 418.00,360.99 L 418.00 377.04 L 422.75 377.03 C430.58,377.01 430.80,377.10 431.47,380.68 C432.32,385.20 431.51,386.15 428.23,384.44 C426.73,383.65 423.81,383.01 421.75,383.01 L 418.00 383.00 L 418.01 397.25 L 418.01 397.86 C418.03,410.05 418.03,414.05 419.91,415.36 C420.83,416.00 422.19,416.00 424.22,416.00 L 424.43 416.00 C429.11,416.00 429.94,415.65 432.69,412.54 C434.38,410.64 435.52,408.85 435.23,408.57 C434.95,408.28 435.45,407.76 436.35,407.42 C437.25,407.07 437.70,406.32 437.34,405.74 C436.96,405.12 437.17,404.99 437.86,405.41 C438.51,405.81 438.80,406.51 438.52,406.96 C438.24,407.42 438.68,408.05 439.51,408.36 C442.78,409.62 440.31,417.27 436.12,418.85 ZM 385.87 420.07 C380.47,421.11 359.87,421.24 358.50,420.23 C357.87,419.77 357.50,406.18 357.50,383.00 C357.50,362.92 357.27,344.92 357.00,343.00 L 356.50 339.50 L 362.59 339.21 C366.98,338.99 369.02,339.32 369.89,340.36 C370.78,341.44 371.07,351.48 371.02,379.41 L 370.96 417.00 L 374.73 416.90 C379.53,416.77 383.48,415.68 383.58,414.45 C383.81,411.80 385.33,408.00 386.17,408.00 C386.69,408.00 386.84,407.55 386.50,407.00 C386.16,406.45 386.39,406.00 387.00,406.00 C387.61,406.00 387.86,405.58 387.54,405.06 C387.22,404.54 387.82,404.19 388.87,404.27 C390.11,404.36 390.58,404.92 390.22,405.87 C389.86,406.81 390.08,407.07 390.83,406.61 C391.66,406.09 392.00,407.31 392.00,410.86 C392.00,413.60 392.15,416.44 392.34,417.17 C392.52,417.90 392.47,418.11 392.22,417.64 C391.96,417.16 391.42,417.33 391.00,418.00 C390.58,418.67 388.28,419.60 385.87,420.07 ZM 116.00 255.31 C116.00,258.93 120.36,256.84 121.37,252.75 C122.24,249.19 123.28,249.27 124.69,253.00 C126.02,256.50 128.41,257.73 130.51,255.99 C132.58,254.27 132.41,251.77 130.25,252.21 C129.17,252.43 127.83,251.49 126.74,249.75 C125.16,247.20 125.13,246.65 126.47,244.06 C127.28,242.49 130.50,239.02 133.63,236.35 C140.26,230.69 142.00,227.17 142.00,219.42 L 142.00 213.78 L 139.25 214.45 C131.35,216.38 125.07,224.15 125.02,232.07 C125.00,236.07 122.24,245.00 121.03,245.00 C120.60,245.00 118.84,245.28 117.12,245.62 C114.60,246.13 114.00,245.92 114.00,244.54 C114.00,242.15 111.57,243.20 111.19,245.76 C110.77,248.62 114.22,250.49 117.09,248.95 C120.10,247.34 120.69,248.63 118.17,251.32 C116.98,252.59 116.00,254.39 116.00,255.31 ZM 317.44 415.71 C318.32,418.01 323.77,417.18 327.06,414.24 C332.86,409.06 333.87,395.99 329.15,387.25 C327.39,384.00 323.56,381.80 320.31,382.18 L 317.50 382.50 L 317.22 398.46 C317.07,407.24 317.17,415.00 317.44,415.71 ZM 136.20 377.07 L 135.74 385.11 L 141.62 384.80 L 147.50 384.50 L 147.47 378.50 C147.43,368.41 146.07,365.11 141.90,365.03 C138.46,364.96 136.69,368.72 136.20,377.07 ZM 263.30 391.75 L 262.74 395.00 L 268.37 395.00 C268.49,395.00 268.61,395.00 268.73,395.00 C271.10,395.00 272.62,395.00 273.43,394.24 C274.90,392.86 274.02,388.96 271.52,377.97 L 271.31 377.03 C269.98,371.20 269.24,367.72 268.47,367.72 C267.42,367.71 266.32,374.14 263.63,389.82 ZM 118.00 241.62 C118.00,245.00 119.61,244.57 120.90,240.85 C122.67,235.79 122.23,232.14 119.55,229.45 C114.91,224.82 107.00,227.10 107.00,233.07 C107.00,238.77 108.93,240.31 112.93,237.81 C115.40,236.27 118.00,238.23 118.00,241.62 ZM 211.44 126.54 C213.51,129.70 214.64,129.64 222.50,125.93 C227.64,123.50 229.00,122.39 229.00,120.63 C229.00,115.30 225.33,114.80 217.04,118.98 C209.95,122.56 209.35,123.36 211.44,126.54 ZM 438.45 356.08 C438.14,356.58 437.51,357.00 437.06,357.00 C436.15,357.00 433.39,350.93 433.76,349.75 C433.89,349.34 433.48,349.00 432.83,349.00 C432.19,349.00 431.95,348.72 432.30,348.37 C433.49,347.18 428.19,344.00 425.02,344.00 C422.55,344.00 421.93,343.62 422.19,342.26 C422.43,341.02 423.94,340.31 427.51,339.77 C433.61,338.86 437.72,339.61 438.92,341.86 C439.85,343.58 439.49,354.40 438.45,356.08 ZM 135.89 252.25 C136.09,253.64 141.84,253.01 143.43,251.43 C145.45,249.40 145.45,243.60 143.43,241.57 C141.15,239.30 137.53,238.65 134.84,240.04 C131.45,241.79 128.00,245.14 128.00,246.67 C128.00,248.30 128.50,248.33 130.88,246.84 C133.47,245.22 136.18,246.51 135.96,249.25 C135.86,250.49 135.83,251.84 135.89,252.25 ZM 188.82 387.25 L 189.13 390.00 L 178.07 390.00 C171.98,390.00 166.94,389.89 166.87,389.75 C166.80,389.61 166.64,388.48 166.51,387.23 C166.20,384.29 168.13,383.83 179.50,384.21 C188.49,384.50 188.50,384.50 188.82,387.25 ZM 171.22 148.44 C172.44,149.30 174.72,150.00 176.27,150.00 C179.87,150.00 185.00,147.38 185.00,145.55 C185.00,143.78 182.58,141.32 180.07,140.52 C177.49,139.70 171.43,142.34 170.08,144.86 C169.18,146.53 169.38,147.15 171.22,148.44 ZM 239.75 128.36 C244.58,130.39 247.42,130.06 247.80,127.44 C248.03,125.83 246.92,124.78 242.78,122.69 C239.86,121.21 237.14,120.00 236.74,120.00 C236.33,120.00 236.00,121.53 236.00,123.39 C236.00,126.37 236.46,126.98 239.75,128.36 ZM 395.52 243.02 C395.63,243.83 394.99,245.23 394.11,246.13 C392.62,247.64 392.22,247.58 388.87,245.44 C386.87,244.16 383.75,242.73 381.93,242.26 C380.12,241.79 378.44,240.83 378.21,240.12 C377.87,239.12 379.00,238.98 383.25,239.51 C392.44,240.66 395.31,241.48 395.52,243.02 ZM 253.49 132.99 C253.84,133.55 255.44,134.00 257.06,134.00 C260.93,134.00 260.94,131.54 257.06,129.53 C254.32,128.11 254.09,128.14 253.50,130.00 C253.15,131.09 253.15,132.44 253.49,132.99 ZM 401.33 255.94 C403.25,259.82 404.74,263.00 404.66,263.00 C403.76,262.99 397.12,252.62 397.56,251.90 C397.88,251.38 397.71,251.07 397.17,251.23 C395.88,251.59 395.57,249.64 396.85,249.22 C397.41,249.03 399.42,252.06 401.33,255.94 Z" fill="rgb(11,68,159)"/>
<path d="M 296.15 527.02 C274.57,528.60 247.78,527.78 230.97,525.03 C147.86,511.46 74.36,457.52 36.75,382.50 C19.24,347.57 9.99,308.80 10.01,270.50 C10.04,223.81 18.92,186.76 39.62,147.00 C53.01,121.28 69.21,99.74 91.13,78.50 C136.70,34.36 196.21,8.12 256.50,5.59 C313.59,3.18 369.52,18.11 415.32,47.97 C431.74,58.67 440.89,65.98 455.22,79.86 C471.27,95.40 481.66,107.69 492.54,124.00 C512.73,154.27 525.10,185.07 532.70,224.00 C535.16,236.59 535.34,239.43 535.40,266.00 C535.43,284.08 534.99,297.79 534.18,303.50 C528.81,341.36 513.71,379.87 491.78,411.67 C471.60,440.92 441.48,469.60 411.37,488.22 C376.98,509.49 332.92,524.33 296.15,527.02 ZM 241.49 513.49 C264.09,516.40 299.21,514.92 322.00,510.10 C367.55,500.46 409.12,478.80 444.63,446.20 C468.36,424.42 486.27,399.47 502.20,366.00 C507.58,354.69 509.38,349.89 514.55,333.00 C517.26,324.15 517.41,323.37 521.08,300.50 C523.73,283.95 524.24,254.69 522.16,238.50 C512.41,162.55 468.26,94.87 402.41,54.91 C392.33,48.80 380.53,42.75 366.50,36.52 C356.81,32.22 335.15,25.61 321.00,22.64 C287.48,15.60 246.49,16.29 213.97,24.44 C168.12,35.93 129.95,57.75 95.98,91.90 C75.21,112.78 61.51,131.70 48.97,156.79 C30.56,193.65 22.99,226.50 23.01,269.44 C23.03,291.52 24.34,303.42 29.05,324.00 C30.25,329.23 31.45,334.74 31.73,336.25 C32.00,337.76 32.54,339.00 32.92,339.00 C33.27,339.00 36.87,333.10 41.20,325.49 C37.16,332.76 34.00,339.27 34.00,340.34 C34.00,346.20 43.29,368.50 45.73,368.50 C46.31,368.50 53.44,356.88 62.44,341.35 C53.66,356.94 46.00,370.69 46.00,371.03 C46.00,371.53 46.76,373.52 47.69,375.47 C48.61,377.41 49.64,379.00 49.97,379.00 C50.24,379.00 52.26,375.84 54.79,371.51 L 49.76 380.33 L 51.90 384.42 C53.08,386.66 55.38,390.30 57.02,392.50 C58.65,394.70 62.13,399.60 64.75,403.39 C76.29,420.12 82.93,428.00 85.50,427.97 C86.71,427.96 88.11,425.70 92.23,415.71 C89.82,421.83 88.12,426.24 87.55,427.86 L 86.13 431.88 L 98.84 444.19 C138.39,482.51 187.97,506.59 241.49,513.49 ZM 316.00 459.00 C316.00,462.03 310.56,461.71 307.59,458.50 C306.31,457.12 304.50,456.00 303.56,456.00 C302.62,456.00 300.53,454.68 298.92,453.08 C293.80,447.95 295.51,437.69 301.94,435.03 C308.39,432.36 315.53,436.30 316.64,443.15 C317.28,447.09 314.92,453.71 312.55,454.62 C310.55,455.39 311.57,457.00 314.06,457.00 C315.33,457.00 316.00,457.69 316.00,459.00 ZM 376.00 454.00 C374.41,455.59 372.67,456.00 367.47,456.00 L 360.93 456.00 L 361.22 445.25 L 361.50 434.50 L 367.37 434.73 C370.60,434.86 373.87,435.47 374.62,436.10 C376.19,437.41 376.48,442.58 375.04,443.48 C374.50,443.81 374.94,444.94 376.04,446.04 C378.55,448.55 378.54,451.46 376.00,454.00 ZM 336.00 454.00 C334.54,455.46 332.67,456.00 329.07,456.00 C324.92,456.00 323.81,455.58 322.04,453.32 C320.22,451.00 319.96,449.52 320.21,442.57 C320.47,435.26 320.69,434.50 322.50,434.49 C324.29,434.49 324.55,435.32 325.00,442.39 C325.38,448.46 325.91,450.55 327.25,451.39 C328.52,452.19 329.48,452.19 330.75,451.39 C332.12,450.53 332.56,448.63 332.79,442.64 C333.07,435.27 333.17,435.00 335.54,435.00 C337.96,435.00 338.00,435.14 338.00,443.50 C338.00,450.67 337.69,452.31 336.00,454.00 ZM 395.00 454.00 C395.00,455.81 394.33,456.00 388.00,456.00 L 381.00 456.00 L 381.00 434.00 L 386.42 434.00 C393.12,434.00 395.00,434.68 395.00,437.11 C395.00,438.68 394.25,439.00 390.50,439.00 C386.67,439.00 386.00,439.30 386.00,441.00 C386.00,442.67 386.67,443.00 390.00,443.00 C392.20,443.00 394.00,443.19 394.00,443.42 C394.00,443.65 394.27,444.55 394.61,445.42 C395.11,446.72 394.40,447.00 390.61,447.00 C386.36,447.00 386.00,447.20 386.00,449.50 C386.00,451.80 386.37,452.00 390.50,452.00 C394.33,452.00 395.00,452.30 395.00,454.00 ZM 414.80 454.25 C413.53,455.35 411.13,456.00 408.31,456.00 C402.15,456.00 398.00,451.99 398.00,446.03 C398.00,437.85 403.14,433.05 410.44,434.42 C413.61,435.02 418.00,438.92 418.00,441.13 C418.00,442.59 413.32,442.10 412.00,440.50 C411.32,439.67 409.48,439.00 407.91,439.00 C404.68,439.00 403.00,441.31 403.00,445.78 C403.00,451.18 409.61,454.20 412.23,450.00 C412.92,448.90 414.53,448.00 415.81,448.00 C417.75,448.00 418.03,448.37 417.48,450.25 C417.12,451.49 415.92,453.29 414.80,454.25 ZM 357.00 454.00 C357.00,455.81 356.33,456.00 350.00,456.00 L 343.00 456.00 L 343.00 434.16 L 350.00 434.26 C356.62,434.36 357.00,434.49 357.00,436.68 C357.00,438.76 356.54,439.00 352.50,439.00 C348.67,439.00 348.00,439.30 348.00,441.00 C348.00,442.67 348.67,443.00 352.00,443.00 C355.33,443.00 356.00,443.33 356.00,445.00 C356.00,446.67 355.33,447.00 352.00,447.00 C348.40,447.00 348.00,447.25 348.00,449.50 C348.00,451.80 348.37,452.00 352.50,452.00 C356.33,452.00 357.00,452.30 357.00,454.00 ZM 302.65 450.17 C306.30,454.20 311.40,451.48 311.40,445.50 C311.40,441.25 309.50,439.00 305.91,439.00 C301.24,439.00 299.12,446.27 302.65,450.17 ZM 436.12 418.85 C440.31,417.27 442.78,409.62 439.51,408.36 C438.68,408.05 438.24,407.42 438.52,406.96 C438.80,406.51 438.51,405.81 437.86,405.41 C437.75,405.35 437.66,405.29 437.57,405.25 C437.75,405.00 437.93,404.75 438.12,404.48 C440.02,401.84 441.73,400.33 442.26,400.86 C442.77,401.37 442.80,405.72 442.32,411.12 L 441.50 420.50 L 421.25 420.77 C410.11,420.92 401.00,420.72 401.00,420.34 C401.00,419.95 401.86,418.70 402.91,417.56 C405.69,414.57 405.92,411.66 406.02,378.28 C406.08,355.86 405.97,348.81 404.53,345.54 C406.08,348.07 406.10,351.44 406.03,378.07 C405.96,406.62 405.74,411.80 404.38,416.30 C403.13,420.42 405.37,421.01 419.86,420.41 C427.36,420.09 434.68,419.39 436.12,418.85 ZM 228.35 339.12 C229.59,339.03 231.30,339.00 233.67,339.00 C240.08,339.00 242.00,339.32 242.00,340.38 C242.00,341.14 241.32,342.32 240.50,343.00 C239.21,344.07 239.00,349.73 239.00,382.67 L 239.00 421.10 L 233.84 420.80 L 228.69 420.50 L 225.83 413.50 C225.33,412.27 224.85,411.01 224.42,409.82 C225.95,413.63 228.15,417.88 229.34,418.87 C231.61,420.75 235.27,419.86 236.65,417.09 C237.84,414.69 237.85,414.70 238.26,418.09 C238.49,419.96 238.72,404.17 238.77,383.00 C238.82,361.83 238.49,345.40 238.04,346.50 C237.40,348.06 237.14,347.50 236.86,344.00 L 236.50 339.50 L 230.92 339.21 C229.89,339.15 229.05,339.12 228.35,339.12 ZM 385.87 420.07 C388.28,419.60 390.58,418.67 391.00,418.00 C391.42,417.33 391.96,417.16 392.22,417.64 C392.47,418.11 392.52,417.90 392.34,417.17 C392.15,416.44 392.00,413.60 392.00,410.86 C392.00,407.31 391.66,406.09 390.83,406.61 C390.08,407.07 389.86,406.81 390.22,405.87 C390.58,404.92 390.11,404.36 388.87,404.27 C388.48,404.24 388.15,404.27 387.90,404.34 C388.00,403.81 388.19,403.13 388.42,402.50 C392.03,392.76 393.00,393.70 393.00,406.92 C393.00,412.92 392.73,418.55 392.39,419.42 C391.87,420.79 389.15,421.00 372.39,421.00 C360.75,421.00 353.00,420.62 353.00,420.05 C353.00,419.52 354.14,417.95 355.54,416.55 L 357.90 414.19 C358.06,417.98 358.26,420.06 358.50,420.23 C359.87,421.24 380.47,421.11 385.87,420.07 ZM 438.45 356.08 C439.49,354.40 439.85,343.58 438.92,341.86 C437.72,339.61 433.61,338.86 427.51,339.77 C423.94,340.31 422.43,341.02 422.19,342.26 C421.93,343.62 422.55,344.00 425.02,344.00 C425.56,344.00 426.16,344.09 426.79,344.25 C425.81,344.12 424.67,344.10 423.27,344.19 L 419.33 344.45 C419.38,344.41 419.44,344.38 419.50,344.36 C421.42,343.63 421.40,342.54 419.43,340.57 C418.76,339.90 417.24,339.43 415.42,339.17 C417.02,339.18 418.79,339.20 420.75,339.23 L 440.50 339.50 L 440.78 350.75 C440.94,356.94 440.70,362.00 440.26,362.00 C439.70,362.00 438.02,359.38 436.48,356.55 C436.71,356.83 436.91,357.00 437.06,357.00 C437.51,357.00 438.14,356.58 438.45,356.08 ZM 418.00 377.00 L 421.04 377.00 C425.29,377.00 427.50,375.62 428.98,372.04 C429.68,370.37 430.64,369.00 431.12,369.00 C431.60,369.00 432.00,373.95 432.00,380.00 C432.00,386.05 431.66,391.00 431.25,391.00 C430.84,391.00 429.60,389.31 428.50,387.25 C426.73,383.93 426.01,383.46 422.25,383.19 L 419.63 383.00 L 421.75 383.01 C423.81,383.01 426.73,383.65 428.23,384.44 C431.51,386.15 432.32,385.20 431.47,380.68 C430.80,377.10 430.58,377.01 422.75,377.03 L 418.00 377.04 ZM 207.70 418.28 C208.64,417.09 208.58,416.29 207.43,414.53 L 209.00 416.00 C210.65,417.54 212.00,419.30 212.00,419.90 C212.00,420.62 208.74,421.00 202.50,421.00 C194.72,421.00 193.00,420.73 193.00,419.50 C193.00,418.67 193.46,418.00 194.01,418.00 C194.57,418.00 195.91,416.56 196.98,414.79 C197.53,413.88 197.95,413.02 198.25,411.71 C198.06,412.82 197.82,413.72 197.53,414.57 C196.27,418.21 196.32,418.58 198.15,419.57 C200.70,420.95 206.16,420.21 207.70,418.28 ZM 371.01 365.35 C370.94,347.98 370.61,341.24 369.89,340.36 C369.02,339.32 366.98,338.99 362.59,339.21 L 356.50 339.50 L 357.00 343.00 C357.08,343.57 357.16,345.56 357.23,348.60 C356.90,344.36 356.34,343.88 355.25,343.00 C351.07,339.62 352.43,339.00 364.00,339.00 C372.18,339.00 375.00,339.32 375.00,340.26 C375.00,340.95 374.10,342.08 373.00,342.77 C371.39,343.78 371.07,344.72 371.01,365.35 ZM 264.00 420.04 C264.00,420.58 260.29,421.00 255.50,421.00 C246.58,421.00 245.48,420.34 248.62,416.86 C249.53,415.87 251.55,408.66 253.46,399.72 C251.65,408.24 249.74,415.61 249.15,416.32 C248.28,417.37 248.53,417.94 250.26,418.86 C253.04,420.32 258.07,419.98 258.72,418.28 C258.99,417.58 259.51,417.20 259.87,417.42 C260.17,417.60 260.31,416.61 260.24,415.08 C260.56,416.51 261.15,417.54 262.00,418.00 C263.10,418.59 264.00,419.50 264.00,420.04 ZM 320.65 418.83 C321.29,418.33 323.02,418.22 324.50,418.59 C326.52,419.10 326.85,419.49 325.85,420.17 C325.63,420.32 325.49,420.44 325.42,420.53 C323.02,420.66 319.92,420.75 315.75,420.85 C299.55,421.22 297.65,420.76 302.25,417.54 L 302.36 417.46 C302.48,417.71 302.80,418.14 303.28,418.69 C304.85,420.49 305.92,420.67 312.28,420.24 C316.25,419.97 320.02,419.33 320.65,418.83 ZM 267.08 261.29 C268.43,261.25 268.44,260.52 268.26,257.61 C268.13,255.47 268.73,251.31 269.58,248.37 C271.00,243.47 271.00,242.80 269.47,240.27 C269.33,240.03 269.17,239.79 269.01,239.55 C269.37,240.01 269.70,240.48 270.01,240.95 C272.10,244.13 272.18,244.76 271.06,249.16 C270.38,251.78 269.98,255.63 270.17,257.71 L 270.50 261.50 ZM 153.07 419.94 C152.12,420.41 150.89,420.90 149.65,421.31 C149.88,421.00 150.00,420.59 150.00,420.12 C150.00,419.09 151.01,417.50 152.25,416.59 C153.39,415.76 153.94,415.35 153.91,415.29 C156.21,414.43 158.33,414.00 158.66,414.33 C159.64,415.31 156.97,417.98 153.07,419.94 ZM 366.00 449.50 C366.00,451.47 366.51,452.00 368.38,452.00 C371.04,452.00 373.51,449.64 372.53,448.04 C372.17,447.47 370.56,447.00 368.94,447.00 C366.47,447.00 366.00,447.40 366.00,449.50 ZM 317.23 360.25 L 316.95 377.00 L 316.82 377.00 L 317.16 358.00 L 317.50 339.09 C319.31,339.15 320.98,339.25 322.54,339.40 C322.42,339.72 322.60,340.25 323.00,341.00 C323.59,342.10 323.80,343.00 323.46,343.00 C323.22,343.00 323.67,343.55 324.52,344.35 C323.18,343.44 321.68,343.01 320.11,343.20 L 317.50 343.50 ZM 353.48 431.02 C352.50,432.11 350.84,433.00 349.81,433.00 C348.26,433.00 348.11,432.66 348.97,431.06 C350.35,428.47 351.76,427.69 353.68,428.43 C355.10,428.98 355.08,429.25 353.48,431.02 ZM 366.00 441.07 C366.00,442.64 366.54,443.06 368.24,442.82 C371.56,442.35 371.86,439.00 368.57,439.00 C366.64,439.00 366.00,439.51 366.00,441.07 ZM 403.14 343.56 C402.96,343.39 402.76,343.22 402.55,343.05 C401.70,342.34 401.00,341.13 401.00,340.36 C401.00,339.61 402.40,339.26 407.77,339.17 C406.10,339.44 404.86,339.92 404.60,340.59 C404.27,341.46 404.31,342.70 404.69,343.34 C405.07,343.98 404.54,343.83 403.50,343.00 C402.23,341.99 402.08,342.05 403.14,343.56 ZM 277.07 417.15 C277.63,416.69 278.04,416.35 278.30,415.94 C278.22,416.17 278.12,416.35 278.00,416.50 C277.22,417.44 277.36,418.22 278.54,419.39 C279.39,420.24 281.62,420.78 284.13,420.99 C274.40,420.92 273.32,420.18 277.07,417.15 ZM 304.94 361.94 C304.99,366.40 305.00,372.01 305.00,379.10 C305.00,396.29 304.90,406.21 304.54,411.64 L 304.79 381.10 ZM 293.66 419.44 C294.01,418.53 294.93,418.12 295.88,418.44 C296.88,418.79 296.65,418.28 295.26,417.10 C294.81,416.72 294.43,416.43 294.08,416.12 C293.98,416.02 293.88,415.93 293.79,415.83 C293.88,415.92 293.98,416.00 294.08,416.08 C294.37,416.30 294.68,416.49 295.05,416.75 C296.12,417.50 297.00,418.76 297.00,419.56 C297.00,420.56 295.46,420.91 289.35,420.98 C291.58,420.76 293.35,420.25 293.66,419.44 ZM 303.62 344.51 L 302.54 343.23 C301.14,341.57 300.00,339.94 300.00,339.61 C300.00,339.32 304.08,339.08 309.52,339.02 C302.77,339.19 300.99,340.73 303.41,344.18 C303.48,344.28 303.55,344.39 303.62,344.51 ZM 418.47 346.36 L 418.00 374.07 L 418.00 360.99 C418.00,352.71 418.10,348.49 418.47,346.36 ZM 336.00 417.97 C333.80,419.20 332.34,419.84 329.30,420.22 C331.72,419.59 334.69,418.59 336.50,417.62 C337.11,417.29 337.67,416.94 338.21,416.57 C337.53,417.06 336.80,417.53 336.00,417.97 ZM 153.21 415.55 C152.97,415.66 152.67,415.80 152.32,415.97 C150.09,417.02 147.78,417.32 145.70,416.93 C147.69,417.17 150.09,416.70 153.21,415.55 ZM 217.51 391.20 C215.40,384.57 207.16,361.92 206.49,361.16 L 206.50 360.50 L 211.70 374.63 C214.46,382.12 217.00,389.38 217.51,391.20 ZM 437.29 405.66 C437.31,405.69 437.32,405.71 437.34,405.74 C437.70,406.32 437.25,407.07 436.35,407.42 C436.24,407.46 436.14,407.50 436.04,407.55 C436.37,407.02 436.80,406.37 437.29,405.66 ZM 218.76 216.08 C234.51,220.13 246.31,224.20 254.85,228.63 C246.21,224.23 234.17,220.04 218.76,216.08 ZM 331.90 341.29 C336.44,342.95 339.25,345.63 341.35,349.70 C341.79,350.55 342.15,351.75 342.41,353.14 C341.12,347.45 337.69,343.60 331.90,341.29 ZM 326.46 346.10 C328.94,348.66 330.54,353.32 330.83,358.53 C330.52,353.40 328.87,348.88 326.46,346.10 ZM 371.00 417.00 L 370.96 417.00 L 371.00 392.86 ZM 75.93 264.08 C77.55,261.23 79.18,258.37 80.81,255.50 C84.07,249.76 87.83,243.33 90.59,238.74 C87.59,243.74 83.00,251.68 75.93,264.08 ZM 302.60 417.29 L 303.89 416.39 C303.57,417.43 303.15,417.62 302.63,417.31 C302.62,417.31 302.61,417.30 302.60,417.29 ZM 342.98 359.94 C342.97,362.94 342.64,365.84 341.94,367.68 C342.46,366.30 342.90,362.98 342.98,359.94 ZM 219.11 394.00 C219.60,394.00 219.91,394.34 219.81,394.75 C219.91,394.34 219.55,394.00 219.00,394.00 C218.45,394.00 218.00,393.53 218.00,392.96 C218.00,392.88 217.95,392.65 217.85,392.30 C218.22,393.29 218.73,394.00 219.11,394.00 ZM 432.30 348.37 C432.62,348.04 431.94,347.02 430.75,346.03 C432.06,346.90 432.83,347.83 432.30,348.37 ZM 64.19 355.09 C68.64,347.32 74.21,337.61 79.44,328.53 C89.32,311.34 93.33,304.25 94.50,301.05 C93.33,304.25 89.33,311.34 79.45,328.53 C74.28,337.51 68.71,347.21 64.19,355.09 ZM 88.20 296.46 C88.26,296.35 88.30,296.28 88.32,296.25 C88.74,295.59 89.32,295.39 90.28,295.72 C89.39,295.46 88.80,295.72 88.20,296.46 ZM 115.34 357.90 C116.96,353.90 118.46,350.19 119.76,347.00 C125.05,334.07 129.62,322.54 130.49,319.96 C129.62,322.54 125.05,334.07 119.77,347.00 C118.38,350.41 116.89,354.08 115.34,357.90 ZM 342.57 411.70 C344.13,408.79 344.87,405.05 344.92,400.20 C344.87,405.11 344.16,408.79 342.57,411.70 ZM 433.91 351.09 C433.64,350.32 433.54,349.80 433.68,349.65 C433.72,349.61 433.76,349.57 433.78,349.53 C433.79,349.60 433.79,349.67 433.76,349.75 C433.68,350.00 433.75,350.49 433.91,351.09 ZM 330.77 362.87 C330.75,363.08 330.73,363.29 330.71,363.50 C330.30,367.48 329.36,370.56 327.87,372.77 C329.36,370.53 330.30,367.41 330.72,363.37 C330.74,363.20 330.76,363.04 330.77,362.87 ZM 137.47 421.74 C135.71,421.32 134.41,420.74 134.21,420.12 C134.39,420.68 135.75,421.28 137.47,421.74 ZM 146.81 422.10 C146.52,422.16 146.25,422.21 146.00,422.25 C145.59,422.31 145.16,422.35 144.72,422.38 C145.34,422.27 146.10,422.17 146.81,422.10 ZM 262.32 401.00 L 261.45 403.89 L 262.26 401.00 ZM 197.81 372.61 C197.91,375.04 198.01,377.32 198.09,379.46 C198.00,377.32 197.91,375.04 197.81,372.61 C197.40,362.95 197.24,356.84 197.33,353.26 C197.24,356.84 197.40,362.95 197.81,372.61 ZM 46.78 315.57 C49.35,311.02 52.17,306.01 55.19,300.66 C52.56,305.32 49.76,310.28 46.78,315.57 ZM 225.33 340.61 C225.35,341.53 226.12,342.48 227.07,342.73 C226.12,342.48 225.33,341.54 225.33,340.64 C225.33,340.63 225.33,340.62 225.33,340.61 ZM 387.41 405.92 C387.30,405.97 387.16,406.00 387.00,406.00 C386.39,406.00 386.16,406.45 386.50,407.00 C386.16,406.45 386.36,406.00 386.94,406.00 C387.12,406.00 387.28,405.97 387.41,405.92 ZM 419.91 415.36 C418.56,414.42 418.18,412.11 418.07,406.40 C418.18,412.11 418.57,414.42 419.91,415.36 ZM 432.69 412.54 C431.19,414.24 430.26,415.12 428.96,415.56 C430.25,415.12 431.19,414.24 432.69,412.54 ZM 264.32 261.03 C264.57,261.08 264.83,261.11 265.11,261.14 C264.83,261.11 264.57,261.08 264.32,261.03 Z" fill="rgb(49,52,74)"/>
<path d="M 267.08 261.29 L 270.50 261.50 L 270.17 257.71 C269.98,255.63 270.38,251.78 271.06,249.16 C271.88,245.94 272.06,244.74 271.27,243.08 L 273.05 240.17 C274.05,238.51 276.86,235.99 279.29,234.57 C283.44,232.14 300.96,225.29 314.50,220.81 C317.80,219.71 326.07,216.17 332.87,212.92 C347.99,205.71 352.00,202.04 352.00,195.40 C352.00,189.05 348.87,180.99 342.37,170.56 C339.26,165.58 336.08,160.46 335.30,159.20 C334.52,157.93 333.12,156.65 332.19,156.36 C330.28,155.76 327.11,154.58 315.16,150.00 C310.33,148.14 305.92,147.04 304.66,147.36 C303.47,147.68 299.03,148.74 294.78,149.73 C287.52,151.42 286.78,151.85 282.08,157.12 C279.33,160.20 275.61,163.28 273.79,163.97 C271.98,164.65 269.07,165.92 267.33,166.79 C267.19,166.86 267.06,166.93 266.93,166.99 C267.14,166.87 267.33,166.75 267.50,166.62 C269.31,165.30 269.27,165.13 266.45,162.65 C264.83,161.23 262.95,160.05 262.27,160.03 C259.65,159.96 259.81,154.70 262.81,142.70 L 265.85 130.50 L 263.18 128.25 C263.04,128.13 262.86,128.00 262.62,127.83 L 266.26 130.14 L 269.38 127.23 C271.10,125.63 278.09,120.60 284.92,116.05 C296.85,108.10 297.51,107.80 301.92,108.29 C304.44,108.58 316.85,110.26 329.50,112.04 C342.15,113.82 356.00,115.55 360.27,115.89 L 368.04 116.50 L 371.77 121.22 C373.82,123.82 384.27,133.94 394.98,143.72 C405.70,153.50 434.84,181.46 459.73,205.86 C499.57,244.90 505.02,250.59 505.13,253.36 C505.20,255.09 505.31,257.50 505.38,258.72 C505.49,260.84 520.36,276.83 523.13,277.94 C522.85,284.29 522.39,290.39 521.75,295.67 C520.97,293.29 518.17,289.35 512.86,282.94 C507.30,276.22 503.12,272.02 502.18,272.20 C501.34,272.37 500.75,272.95 500.88,273.50 C501.02,274.05 505.44,279.99 510.72,286.71 C516.00,293.42 520.70,298.68 521.16,298.40 C521.26,298.34 521.34,298.28 521.42,298.21 C521.31,299.00 521.20,299.76 521.08,300.50 C517.41,323.37 517.26,324.15 514.55,333.00 C509.38,349.89 507.58,354.69 502.20,366.00 C497.02,376.87 491.64,386.84 485.92,396.10 C484.96,392.43 477.50,379.87 463.87,359.00 C459.03,351.60 434.90,313.39 432.29,309.00 L 430.21 305.50 L 436.68 301.00 C440.24,298.52 445.70,294.48 448.82,292.00 C457.33,285.25 494.38,253.46 495.97,251.54 C497.22,250.04 493.35,245.85 458.67,211.18 L 419.98 172.50 L 412.74 176.22 C408.75,178.27 400.55,183.70 394.50,188.29 C385.05,195.47 383.10,197.45 380.65,202.38 C377.93,207.86 377.79,208.82 377.60,223.41 L 377.39 238.71 L 381.05 239.27 C378.60,239.07 377.94,239.32 378.21,240.12 C378.44,240.83 380.12,241.79 381.93,242.26 C382.64,242.45 383.55,242.78 384.51,243.18 C383.52,242.78 382.62,242.47 381.95,242.34 C380.30,242.01 378.79,241.46 378.57,241.12 C377.99,240.18 348.26,240.78 342.00,241.87 C338.98,242.39 334.48,243.51 332.00,244.36 C329.52,245.20 323.45,246.59 318.50,247.44 C308.45,249.18 295.84,253.07 282.82,258.46 C275.40,261.53 273.31,261.98 268.48,261.59 C266.53,261.43 265.17,261.29 263.97,260.97 C264.09,260.99 264.20,261.01 264.32,261.03 C264.57,261.08 264.83,261.11 265.11,261.14 C265.23,261.16 265.36,261.17 265.50,261.19 C266.17,261.26 266.68,261.30 267.08,261.29 ZM 459.00 257.99 C458.17,258.53 457.27,258.98 456.99,258.98 C456.71,258.99 453.28,255.80 449.37,251.89 L 442.26 244.78 L 437.54 251.39 C434.95,255.02 432.59,258.00 432.31,258.00 C432.02,258.00 430.92,256.89 429.85,255.54 C428.06,253.26 427.16,253.05 418.21,252.79 C408.59,252.50 408.50,252.48 408.77,250.07 C408.97,248.26 407.87,246.61 404.41,243.57 L 399.78 239.50 L 403.98 236.75 C407.25,234.61 409.37,234.00 413.59,234.00 C416.57,234.00 418.99,233.66 418.99,233.25 C418.98,232.84 416.39,231.08 413.24,229.34 C406.38,225.56 399.00,220.30 399.00,219.19 C399.00,218.76 400.61,217.82 402.57,217.11 C405.31,216.12 405.98,215.43 405.44,214.16 C404.11,211.01 402.18,202.00 402.84,202.01 C403.20,202.01 406.40,202.90 409.95,203.98 C413.49,205.05 416.48,205.84 416.57,205.72 C416.67,205.60 417.49,204.04 418.40,202.25 C419.31,200.46 420.24,199.00 420.47,199.00 C420.70,199.00 423.73,203.74 427.20,209.53 L 433.50 220.06 L 433.80 214.53 C434.05,209.91 434.41,209.00 435.97,209.00 C436.99,209.00 438.70,207.81 439.76,206.36 L 441.68 203.72 L 444.46 207.36 C446.69,210.28 447.90,211.00 450.62,211.00 L 454.00 211.00 L 454.00 220.05 C454.00,228.42 454.19,229.27 456.51,231.42 C457.55,232.38 458.23,232.97 458.25,233.57 C458.29,234.57 456.49,235.63 451.48,238.59 C451.25,238.73 451.00,238.87 450.75,239.02 C447.59,240.89 445.00,242.72 445.00,243.08 C445.00,243.84 451.83,250.21 457.00,254.27 C459.90,256.54 460.24,257.18 459.00,257.99 ZM 385.35 161.54 C386.65,162.44 387.21,162.87 387.80,162.89 C388.30,162.92 388.81,162.64 389.79,162.11 C389.88,162.07 389.97,162.02 390.07,161.96 C391.13,161.40 392.00,160.16 392.00,159.21 C391.99,158.27 386.31,151.49 379.37,144.13 L 366.76 130.77 L 367.36 126.38 C367.69,123.97 367.80,122.00 367.60,122.00 C367.41,122.00 365.54,122.71 363.45,123.58 C358.80,125.53 353.87,125.08 341.00,121.55 C332.52,119.22 316.22,115.53 308.75,114.25 C306.71,113.90 306.00,114.18 306.00,115.35 C306.00,116.36 307.53,117.33 310.25,118.06 C318.46,120.24 340.53,126.82 343.50,127.97 C345.15,128.61 347.75,130.49 349.29,132.17 C351.69,134.78 352.64,135.15 356.13,134.82 L 360.19 134.43 L 371.73 147.25 C378.07,154.30 384.20,160.73 385.35,161.54 ZM 272.54 132.06 C273.42,133.49 274.22,133.25 279.30,130.02 C284.05,127.01 285.30,125.00 282.43,125.00 C280.18,125.00 271.85,130.95 272.54,132.06 ZM 287.65 122.54 C288.43,124.57 290.64,124.36 292.98,122.02 C294.79,120.21 294.82,117.00 293.03,117.00 C291.20,117.00 287.13,121.18 287.65,122.54 ZM 299.00 113.93 C299.00,115.36 299.64,116.00 301.07,116.00 C303.64,116.00 303.35,112.69 300.74,112.19 C299.54,111.96 299.00,112.50 299.00,113.93 ZM 523.32 254.85 C522.41,243.22 520.87,229.71 519.20,220.60 C520.40,226.51 521.39,232.48 522.16,238.50 C522.75,243.09 523.14,248.74 523.32,254.85 ZM 314.02 21.30 C300.38,19.00 286.37,18.00 270.10,18.00 C264.99,18.00 260.31,18.08 255.91,18.26 C275.48,17.12 295.65,18.11 314.02,21.30 ZM 406.40 475.61 C380.40,492.13 352.07,503.73 322.00,510.10 C351.57,503.84 380.52,491.87 406.40,475.61 ZM 506.41 177.69 C493.32,145.05 473.40,115.28 448.47,90.69 C473.66,115.38 493.40,145.05 506.41,177.69 ZM 453.67 437.46 C456.40,434.63 459.05,431.75 461.60,428.82 C465.45,424.40 471.44,416.87 476.55,410.19 C469.53,420.00 461.97,429.00 453.67,437.46 ZM 261.25 126.97 C258.03,125.02 251.62,121.60 245.00,118.32 C237.21,114.47 232.77,112.44 229.66,111.47 C233.00,112.36 236.80,114.23 242.50,117.01 C249.65,120.48 257.92,124.86 260.88,126.73 ZM 378.51 42.07 C365.04,35.77 364.14,35.41 354.57,32.06 C353.47,31.67 352.38,31.30 351.29,30.93 C357.38,32.91 362.81,34.88 366.50,36.52 C370.70,38.39 374.70,40.24 378.51,42.07 ZM 253.00 163.09 C252.21,162.45 251.47,162.00 251.12,162.00 C250.64,162.00 248.58,159.98 246.55,157.50 C248.58,159.98 250.86,162.00 251.62,162.00 C252.38,162.00 253.00,162.47 253.00,163.05 C253.00,163.06 253.00,163.08 253.00,163.09 ZM 219.15 111.92 C215.48,113.16 210.14,115.44 201.63,119.31 C209.73,115.63 215.01,113.19 219.15,111.92 ZM 395.52 243.03 C395.80,243.81 395.26,244.80 394.11,246.17 C393.31,247.11 392.85,247.46 391.79,247.06 C392.74,247.36 393.24,247.01 394.11,246.13 C394.99,245.24 395.62,243.84 395.52,243.03 ZM 259.72 167.03 C258.41,166.61 256.98,165.96 255.82,165.29 C256.99,165.91 258.39,166.54 259.72,167.03 Z" fill="rgb(222,38,28)"/>
<path d="M 0.00 269.00 L 0.00 0.00 L 275.00 0.00 L 550.00 0.00 L 550.00 269.00 L 550.00 538.00 L 275.00 538.00 L 0.00 538.00 L 0.00 269.00 ZM 296.15 527.02 C332.92,524.33 376.98,509.49 411.37,488.22 C441.48,469.60 471.60,440.92 491.78,411.67 C513.71,379.87 528.81,341.36 534.18,303.50 C534.99,297.79 535.43,284.08 535.40,266.00 C535.34,239.43 535.16,236.59 532.70,224.00 C525.10,185.07 512.73,154.27 492.54,124.00 C481.66,107.69 471.27,95.40 455.22,79.86 C440.89,65.98 431.74,58.67 415.32,47.97 C369.52,18.11 313.59,3.18 256.50,5.59 C196.21,8.12 136.70,34.36 91.13,78.50 C69.21,99.74 53.01,121.28 39.62,147.00 C18.92,186.76 10.04,223.81 10.01,270.50 C9.99,308.80 19.24,347.57 36.75,382.50 C74.36,457.52 147.86,511.46 230.97,525.03 C247.78,527.78 274.57,528.60 296.15,527.02 ZM 241.49 513.49 C187.97,506.59 138.39,482.51 98.84,444.19 L 86.13 431.88 L 87.55 427.86 C89.73,421.69 108.15,375.44 119.77,347.00 C125.50,332.98 130.39,320.60 130.63,319.50 C131.01,317.82 128.56,316.07 115.29,308.52 C87.98,292.98 71.49,282.88 71.77,281.87 C71.96,281.16 85.63,257.26 87.60,254.18 C87.86,253.78 113.18,268.32 118.50,271.93 C128.73,278.86 144.24,287.16 145.19,286.21 C145.74,285.66 146.51,282.57 146.90,279.35 C147.29,276.13 148.16,272.49 148.84,271.26 C150.57,268.09 159.76,261.47 164.50,259.99 C171.95,257.67 180.22,253.89 187.42,249.52 C200.58,241.53 211.44,241.43 238.39,249.05 C247.90,251.74 253.38,253.85 255.75,255.74 C262.15,260.83 262.81,261.13 268.48,261.59 C273.31,261.98 275.40,261.53 282.82,258.46 C295.84,253.07 308.45,249.18 318.50,247.44 C323.45,246.59 329.52,245.20 332.00,244.36 C334.48,243.51 338.98,242.39 342.00,241.87 C348.26,240.78 377.99,240.18 378.57,241.12 C378.79,241.46 380.30,242.01 381.95,242.34 C383.60,242.67 386.69,244.04 388.82,245.39 C392.41,247.65 392.80,247.71 394.11,246.17 C397.17,242.55 395.91,241.56 386.44,240.11 L 377.39 238.71 L 377.60 223.41 C377.79,208.82 377.93,207.86 380.65,202.38 C383.10,197.45 385.05,195.47 394.50,188.29 C400.55,183.70 408.75,178.27 412.74,176.22 L 419.98 172.50 L 458.67 211.18 C493.35,245.85 497.22,250.04 495.97,251.54 C494.38,253.46 457.33,285.25 448.82,292.00 C445.70,294.48 440.24,298.52 436.68,301.00 L 430.21 305.50 L 432.29 309.00 C434.90,313.39 459.03,351.60 463.87,359.00 C479.26,382.56 486.79,395.53 485.96,397.08 C483.95,400.83 468.90,420.44 461.60,428.82 C426.65,468.94 375.34,498.81 322.00,510.10 C299.21,514.92 264.09,516.40 241.49,513.49 ZM 316.00 459.00 C316.00,457.69 315.33,457.00 314.06,457.00 C311.57,457.00 310.55,455.39 312.55,454.62 C314.92,453.71 317.28,447.09 316.64,443.15 C315.53,436.30 308.39,432.36 301.94,435.03 C295.51,437.69 293.80,447.95 298.92,453.08 C300.53,454.68 302.62,456.00 303.56,456.00 C304.50,456.00 306.31,457.12 307.59,458.50 C310.56,461.71 316.00,462.03 316.00,459.00 ZM 336.00 454.00 C337.69,452.31 338.00,450.67 338.00,443.50 C338.00,435.14 337.96,435.00 335.54,435.00 C333.17,435.00 333.07,435.27 332.79,442.64 C332.56,448.63 332.12,450.53 330.75,451.39 C329.48,452.19 328.52,452.19 327.25,451.39 C325.91,450.55 325.38,448.46 325.00,442.39 C324.55,435.32 324.29,434.49 322.50,434.49 C320.69,434.50 320.47,435.26 320.21,442.57 C319.96,449.52 320.22,451.00 322.04,453.32 C323.81,455.58 324.92,456.00 329.07,456.00 C332.67,456.00 334.54,455.46 336.00,454.00 ZM 357.00 454.00 C357.00,452.30 356.33,452.00 352.50,452.00 C348.37,452.00 348.00,451.80 348.00,449.50 C348.00,447.25 348.40,447.00 352.00,447.00 C355.33,447.00 356.00,446.67 356.00,445.00 C356.00,443.33 355.33,443.00 352.00,443.00 C348.67,443.00 348.00,442.67 348.00,441.00 C348.00,439.30 348.67,439.00 352.50,439.00 C356.54,439.00 357.00,438.76 357.00,436.68 C357.00,434.49 356.62,434.36 350.00,434.26 L 343.00 434.16 L 343.00 445.08 L 343.00 456.00 L 350.00 456.00 C356.33,456.00 357.00,455.81 357.00,454.00 ZM 376.00 454.00 C378.54,451.46 378.55,448.55 376.04,446.04 C374.94,444.94 374.50,443.81 375.04,443.48 C376.48,442.58 376.19,437.41 374.62,436.10 C373.87,435.47 370.60,434.86 367.37,434.73 L 361.50 434.50 L 361.22 445.25 L 360.93 456.00 L 367.47 456.00 C372.67,456.00 374.41,455.59 376.00,454.00 ZM 395.00 454.00 C395.00,452.30 394.33,452.00 390.50,452.00 C386.37,452.00 386.00,451.80 386.00,449.50 C386.00,447.20 386.36,447.00 390.61,447.00 C394.40,447.00 395.11,446.72 394.61,445.42 C394.27,444.55 394.00,443.65 394.00,443.42 C394.00,443.19 392.20,443.00 390.00,443.00 C386.67,443.00 386.00,442.67 386.00,441.00 C386.00,439.30 386.67,439.00 390.50,439.00 C394.25,439.00 395.00,438.68 395.00,437.11 C395.00,434.68 393.12,434.00 386.42,434.00 L 381.00 434.00 L 381.00 445.00 L 381.00 456.00 L 388.00 456.00 C394.33,456.00 395.00,455.81 395.00,454.00 ZM 414.80 454.25 C415.92,453.29 417.12,451.49 417.48,450.25 C418.03,448.37 417.75,448.00 415.81,448.00 C414.53,448.00 412.92,448.90 412.23,450.00 C409.61,454.20 403.00,451.18 403.00,445.78 C403.00,441.31 404.68,439.00 407.91,439.00 C409.48,439.00 411.32,439.67 412.00,440.50 C413.32,442.10 418.00,442.59 418.00,441.13 C418.00,438.92 413.61,435.02 410.44,434.42 C403.14,433.05 398.00,437.85 398.00,446.03 C398.00,451.99 402.15,456.00 408.31,456.00 C411.13,456.00 413.53,455.35 414.80,454.25 ZM 353.48 431.02 C355.08,429.25 355.10,428.98 353.68,428.43 C351.76,427.69 350.35,428.47 348.97,431.06 C348.11,432.66 348.26,433.00 349.81,433.00 C350.84,433.00 352.50,432.11 353.48,431.02 ZM 153.07 419.94 C156.97,417.98 159.64,415.31 158.66,414.33 C158.32,413.99 156.11,414.45 153.74,415.36 C147.11,417.89 143.61,417.52 140.63,413.97 C137.54,410.30 136.79,406.69 137.19,397.50 L 137.50 390.50 L 148.29 390.22 C156.75,389.99 159.21,389.61 159.66,388.44 C160.59,386.03 158.31,373.23 156.26,369.26 C153.36,363.69 150.18,361.82 143.14,361.56 C134.50,361.23 130.41,363.68 126.51,371.50 C123.61,377.29 123.51,377.96 123.55,391.04 C123.58,403.44 123.78,404.91 125.90,408.35 C127.18,410.41 127.97,412.37 127.64,412.69 C126.77,413.57 130.93,419.00 132.48,419.00 C133.23,419.00 134.00,419.51 134.21,420.12 C134.71,421.63 141.67,422.89 146.00,422.25 C147.93,421.96 151.11,420.92 153.07,419.94 ZM 212.00 419.90 C212.00,419.30 210.65,417.54 209.00,416.00 L 206.00 413.20 L 206.00 386.93 C206.00,372.49 206.22,360.89 206.49,361.15 C207.19,361.85 218.00,391.73 218.00,392.96 C218.00,393.53 218.45,394.00 219.00,394.00 C219.55,394.00 219.91,394.34 219.81,394.75 C219.47,396.09 221.14,402.00 221.86,402.00 C222.25,402.00 222.66,403.01 222.77,404.25 C222.88,405.49 224.26,409.65 225.83,413.50 L 228.69 420.50 L 233.84 420.80 L 239.00 421.10 L 239.00 382.67 C239.00,349.73 239.21,344.07 240.50,343.00 C241.32,342.32 242.00,341.14 242.00,340.38 C242.00,339.32 240.08,339.00 233.67,339.00 C226.62,339.00 225.33,339.25 225.33,340.64 C225.33,341.54 226.12,342.48 227.07,342.73 C229.70,343.42 229.98,345.80 229.92,367.50 L 229.87 387.50 L 227.03 380.00 C225.46,375.88 221.88,365.98 219.06,358.00 C216.24,350.02 213.51,342.49 212.99,341.25 C212.10,339.13 211.46,339.00 202.11,339.00 C190.88,339.00 190.36,339.51 195.86,345.01 C198.04,347.19 198.76,348.53 197.99,349.01 C197.13,349.54 197.09,355.53 197.81,372.61 C199.30,408.04 199.24,411.07 196.98,414.79 C195.91,416.56 194.57,418.00 194.01,418.00 C193.46,418.00 193.00,418.67 193.00,419.50 C193.00,420.73 194.72,421.00 202.50,421.00 C208.74,421.00 212.00,420.62 212.00,419.90 ZM 264.00 420.04 C264.00,419.50 263.10,418.59 262.00,418.00 C259.65,416.74 259.29,411.09 261.16,404.87 L 262.32 401.00 L 269.08 401.00 L 275.84 401.00 L 277.49 408.24 C279.10,415.34 279.09,415.50 277.07,417.15 C273.09,420.37 274.55,421.00 286.00,421.00 C294.92,421.00 297.00,420.73 297.00,419.56 C297.00,418.76 296.12,417.50 295.05,416.75 C291.84,414.50 292.55,417.20 279.91,359.03 C277.70,348.87 275.36,340.21 274.70,339.79 C274.04,339.37 271.67,339.02 269.43,339.02 L 265.37 339.00 L 264.17 345.25 C263.51,348.69 261.86,357.35 260.51,364.50 C257.49,380.51 257.78,379.07 253.65,398.79 C251.69,408.15 249.56,415.83 248.62,416.86 C245.48,420.34 246.58,421.00 255.50,421.00 C260.29,421.00 264.00,420.58 264.00,420.04 ZM 336.00 417.97 C342.36,414.43 344.82,409.53 344.92,400.20 C345.04,389.67 342.14,384.48 334.09,380.81 L 329.62 378.78 L 332.56 377.51 C336.21,375.94 340.53,371.41 341.94,367.68 C343.57,363.37 343.24,353.37 341.35,349.70 C337.17,341.59 330.15,339.00 312.32,339.00 C305.54,339.00 300.00,339.27 300.00,339.61 C300.00,339.94 301.14,341.57 302.54,343.23 L 305.07 346.24 L 304.79 381.10 L 304.50 415.96 L 302.25 417.54 C297.65,420.76 299.55,421.22 315.75,420.85 C330.34,420.51 331.83,420.30 336.00,417.97 ZM 392.39 419.42 C392.73,418.55 393.00,412.92 393.00,406.92 C393.00,393.70 392.03,392.76 388.42,402.50 C388.02,403.60 387.75,404.84 387.84,405.25 C387.93,405.66 387.52,406.00 386.94,406.00 C386.36,406.00 386.16,406.45 386.50,407.00 C386.84,407.55 386.69,408.00 386.17,408.00 C385.33,408.00 383.81,411.80 383.58,414.45 C383.48,415.68 379.53,416.77 374.75,416.90 L 371.00 417.00 L 371.00 380.51 C371.00,345.10 371.06,343.98 373.00,342.77 C374.10,342.08 375.00,340.95 375.00,340.26 C375.00,339.32 372.18,339.00 364.00,339.00 C352.43,339.00 351.07,339.62 355.25,343.00 C357.49,344.82 357.50,344.91 357.79,379.42 L 358.07 414.02 L 355.54 416.55 C354.14,417.95 353.00,419.52 353.00,420.05 C353.00,420.62 360.75,421.00 372.39,421.00 C389.15,421.00 391.87,420.79 392.39,419.42 ZM 442.32 411.12 C442.80,405.72 442.77,401.37 442.26,400.86 C441.73,400.33 440.02,401.84 438.12,404.48 C436.34,406.97 435.09,409.00 435.35,409.00 C435.61,409.00 434.43,410.58 432.73,412.50 C429.94,415.65 429.12,416.00 424.43,416.00 C417.96,416.00 418.03,416.22 418.01,397.19 L 418.00 382.89 L 422.25 383.19 C426.01,383.46 426.73,383.93 428.50,387.25 C429.60,389.31 430.84,391.00 431.25,391.00 C431.66,391.00 432.00,386.05 432.00,380.00 C432.00,373.95 431.60,369.00 431.12,369.00 C430.64,369.00 429.68,370.37 428.98,372.04 C427.50,375.62 425.29,377.00 421.04,377.00 L 417.95 377.00 L 418.23 360.75 L 418.50 344.50 L 423.27 344.19 C426.80,343.97 428.68,344.39 430.49,345.81 C431.83,346.87 432.65,348.02 432.30,348.37 C431.95,348.72 432.27,349.00 433.00,349.00 C433.73,349.00 434.04,349.29 433.68,349.65 C432.92,350.42 439.09,362.00 440.26,362.00 C440.70,362.00 440.94,356.94 440.78,350.75 L 440.50 339.50 L 420.75 339.23 C404.37,339.00 401.00,339.20 401.00,340.36 C401.00,341.13 401.70,342.34 402.55,343.05 C405.87,345.79 406.10,348.21 406.02,378.28 C405.92,411.66 405.69,414.57 402.91,417.56 C401.86,418.70 401.00,419.95 401.00,420.34 C401.00,420.72 410.11,420.92 421.25,420.77 L 441.50 420.50 L 442.32 411.12 ZM 188.82 387.25 C188.50,384.50 188.49,384.50 179.50,384.21 C168.13,383.83 166.20,384.29 166.51,387.23 C166.64,388.48 166.80,389.61 166.87,389.75 C166.94,389.89 171.98,390.00 178.07,390.00 L 189.13 390.00 L 188.82 387.25 ZM 401.33 255.94 C399.42,252.06 397.41,249.03 396.85,249.22 C395.57,249.64 395.88,251.59 397.17,251.23 C397.71,251.07 397.88,251.38 397.56,251.90 C397.12,252.62 403.76,262.99 404.66,263.00 C404.74,263.00 403.25,259.82 401.33,255.94 ZM 459.00 257.99 C460.24,257.18 459.90,256.54 457.00,254.27 C451.83,250.21 445.00,243.84 445.00,243.08 C445.00,242.72 447.59,240.89 450.75,239.02 C459.53,233.83 459.36,234.06 456.51,231.42 C454.19,229.27 454.00,228.42 454.00,220.05 L 454.00 211.00 L 450.62 211.00 C447.90,211.00 446.69,210.28 444.46,207.36 L 441.68 203.72 L 439.76 206.36 C438.70,207.81 436.99,209.00 435.97,209.00 C434.41,209.00 434.05,209.91 433.80,214.53 L 433.50 220.06 L 427.20 209.53 C423.73,203.74 420.70,199.00 420.47,199.00 C420.24,199.00 419.31,200.46 418.40,202.25 C417.49,204.04 416.67,205.60 416.57,205.72 C416.48,205.84 413.49,205.05 409.95,203.98 C406.40,202.90 403.20,202.01 402.84,202.01 C402.18,202.00 404.11,211.01 405.44,214.16 C405.98,215.43 405.31,216.12 402.57,217.11 C400.61,217.82 399.00,218.76 399.00,219.19 C399.00,220.30 406.38,225.56 413.24,229.34 C416.39,231.08 418.98,232.84 418.99,233.25 C418.99,233.66 416.57,234.00 413.59,234.00 C409.37,234.00 407.25,234.61 403.98,236.75 L 399.78 239.50 L 404.41 243.57 C407.87,246.61 408.97,248.26 408.77,250.07 C408.50,252.48 408.59,252.50 418.21,252.79 C427.16,253.05 428.06,253.26 429.85,255.54 C430.92,256.89 432.02,258.00 432.31,258.00 C432.59,258.00 434.95,255.02 437.54,251.39 L 442.26 244.78 L 449.37 251.89 C453.28,255.80 456.71,258.99 456.99,258.98 C457.27,258.98 458.17,258.53 459.00,257.99 ZM 47.69 375.47 C46.76,373.52 46.00,371.53 46.00,371.03 C46.00,370.28 83.13,304.51 87.66,297.23 C89.12,294.88 90.04,295.02 94.30,298.20 C95.98,299.46 94.94,301.58 79.44,328.53 C70.27,344.46 60.03,362.34 56.67,368.25 C53.32,374.16 50.30,379.00 49.97,379.00 C49.64,379.00 48.61,377.41 47.69,375.47 ZM 31.73 336.25 C31.45,334.74 30.25,329.23 29.05,324.00 C24.34,303.42 23.03,291.52 23.01,269.44 C22.99,226.50 30.56,193.65 48.97,156.79 C61.51,131.70 75.21,112.78 95.98,91.90 C129.95,57.75 168.12,35.93 213.97,24.44 C233.17,19.62 247.34,18.00 270.10,18.00 C302.22,18.00 325.53,21.88 354.57,32.06 C364.48,35.53 365.10,35.79 380.00,42.77 C449.65,75.37 502.19,141.55 518.54,217.24 C522.30,234.68 525.76,278.00 523.38,278.00 C521.46,278.00 505.50,260.92 505.38,258.72 C505.31,257.50 505.20,255.09 505.13,253.36 C505.02,250.59 499.57,244.90 459.73,205.86 C434.84,181.46 405.70,153.50 394.98,143.72 C384.27,133.94 373.82,123.82 371.77,121.22 L 368.04 116.50 L 360.27 115.89 C356.00,115.55 342.15,113.82 329.50,112.04 C316.85,110.26 304.44,108.58 301.92,108.29 C297.51,107.80 296.85,108.10 284.92,116.05 C278.09,120.60 271.10,125.63 269.38,127.23 L 266.26 130.14 L 260.88 126.73 C257.92,124.86 249.65,120.48 242.50,117.01 C224.96,108.48 225.46,108.46 201.63,119.31 C191.26,124.04 179.58,129.84 175.69,132.21 C171.67,134.64 166.86,136.72 164.56,137.00 C159.90,137.57 162.82,133.96 132.22,177.00 C114.66,201.68 107.02,212.94 93.51,234.00 C91.21,237.57 85.50,247.25 80.81,255.50 C66.17,281.23 51.66,306.87 42.46,323.25 C37.60,331.91 33.30,339.00 32.92,339.00 C32.54,339.00 32.00,337.76 31.73,336.25 ZM 510.72 286.71 C505.44,279.99 501.02,274.05 500.88,273.50 C500.75,272.95 501.34,272.37 502.18,272.20 C503.12,272.02 507.30,276.22 512.86,282.94 C521.25,293.07 523.38,297.03 521.16,298.40 C520.70,298.68 516.00,293.42 510.72,286.71 ZM 116.00 255.31 C116.00,254.39 116.98,252.59 118.17,251.32 C120.69,248.63 120.10,247.34 117.09,248.95 C114.22,250.49 110.77,248.62 111.19,245.76 C111.57,243.20 114.00,242.15 114.00,244.54 C114.00,245.92 114.60,246.13 117.12,245.62 C118.84,245.28 120.60,245.00 121.03,245.00 C122.24,245.00 125.00,236.07 125.02,232.07 C125.07,224.15 131.35,216.38 139.25,214.45 L 142.00 213.78 L 142.00 219.42 C142.00,227.17 140.26,230.69 133.63,236.35 C130.50,239.02 127.28,242.49 126.47,244.06 C125.13,246.65 125.16,247.20 126.74,249.75 C127.83,251.49 129.17,252.43 130.25,252.21 C132.41,251.77 132.58,254.27 130.51,255.99 C128.41,257.73 126.02,256.50 124.69,253.00 C123.28,249.27 122.24,249.19 121.37,252.75 C120.36,256.84 116.00,258.93 116.00,255.31 ZM 135.89 252.25 C135.83,251.84 135.86,250.49 135.96,249.25 C136.18,246.51 133.47,245.22 130.88,246.84 C128.50,248.33 128.00,248.30 128.00,246.67 C128.00,245.14 131.45,241.79 134.84,240.04 C137.53,238.65 141.15,239.30 143.43,241.57 C145.45,243.60 145.45,249.40 143.43,251.43 C141.84,253.01 136.09,253.64 135.89,252.25 ZM 118.00 241.62 C118.00,238.23 115.40,236.27 112.93,237.81 C108.93,240.31 107.00,238.77 107.00,233.07 C107.00,227.10 114.91,224.82 119.55,229.45 C122.23,232.14 122.67,235.79 120.90,240.85 C119.61,244.57 118.00,245.00 118.00,241.62 ZM 269.51 240.34 C264.19,231.49 247.31,223.42 218.76,216.08 C212.30,214.42 205.74,212.40 204.17,211.59 C200.96,209.93 196.92,205.00 194.34,199.59 C192.30,195.31 192.41,194.78 199.59,176.17 C204.27,164.03 204.42,163.79 209.92,160.04 C212.99,157.94 217.17,154.89 219.21,153.25 C222.90,150.30 222.97,150.29 228.18,151.64 C231.07,152.39 235.56,153.00 238.15,153.00 C242.53,153.00 243.13,153.32 246.55,157.50 C248.58,159.98 250.64,162.00 251.12,162.00 C251.60,162.00 252.87,162.87 253.94,163.94 C255.01,165.01 257.75,166.44 260.03,167.13 C263.53,168.17 264.65,168.12 267.33,166.79 C269.07,165.92 271.98,164.65 273.79,163.97 C275.61,163.28 279.33,160.20 282.08,157.12 C286.78,151.85 287.52,151.42 294.78,149.73 C299.03,148.74 303.47,147.68 304.66,147.36 C305.92,147.04 310.33,148.14 315.16,150.00 C327.11,154.58 330.28,155.76 332.19,156.36 C333.12,156.65 334.52,157.93 335.30,159.20 C336.08,160.46 339.26,165.58 342.37,170.56 C348.87,180.99 352.00,189.05 352.00,195.40 C352.00,202.04 347.99,205.71 332.87,212.92 C326.07,216.17 317.80,219.71 314.50,220.81 C300.96,225.29 283.44,232.14 279.29,234.57 C276.86,235.99 274.05,238.51 273.05,240.17 L 271.22 243.17 L 269.51 240.34 ZM 385.35 161.54 C384.20,160.73 378.07,154.30 371.73,147.25 L 360.19 134.43 L 356.13 134.82 C352.64,135.15 351.69,134.78 349.29,132.17 C347.75,130.49 345.15,128.61 343.50,127.97 C340.53,126.82 318.46,120.24 310.25,118.06 C307.53,117.33 306.00,116.36 306.00,115.35 C306.00,114.18 306.71,113.90 308.75,114.25 C316.22,115.53 332.52,119.22 341.00,121.55 C353.87,125.08 358.80,125.53 363.45,123.58 C365.54,122.71 367.41,122.00 367.60,122.00 C367.80,122.00 367.69,123.97 367.36,126.38 L 366.76 130.77 L 379.37 144.13 C386.31,151.49 391.99,158.27 392.00,159.21 C392.00,160.16 391.13,161.40 390.07,161.96 C387.64,163.26 387.85,163.28 385.35,161.54 ZM 171.22 148.44 C169.38,147.15 169.18,146.53 170.08,144.86 C171.43,142.34 177.49,139.70 180.07,140.52 C182.58,141.32 185.00,143.78 185.00,145.55 C185.00,147.38 179.87,150.00 176.27,150.00 C174.72,150.00 172.44,149.30 171.22,148.44 ZM 253.49 132.99 C253.15,132.44 253.15,131.09 253.50,130.00 C254.09,128.14 254.32,128.11 257.06,129.53 C260.94,131.54 260.93,134.00 257.06,134.00 C255.44,134.00 253.84,133.55 253.49,132.99 ZM 272.54 132.06 C271.85,130.95 280.18,125.00 282.43,125.00 C285.30,125.00 284.05,127.01 279.30,130.02 C274.22,133.25 273.42,133.49 272.54,132.06 ZM 239.75 128.36 C236.46,126.98 236.00,126.37 236.00,123.39 C236.00,121.53 236.33,120.00 236.74,120.00 C237.14,120.00 239.86,121.21 242.78,122.69 C246.92,124.78 248.03,125.83 247.80,127.44 C247.42,130.06 244.58,130.39 239.75,128.36 ZM 211.44 126.54 C209.35,123.36 209.95,122.56 217.04,118.98 C225.33,114.80 229.00,115.30 229.00,120.63 C229.00,122.39 227.64,123.50 222.50,125.93 C214.64,129.64 213.51,129.70 211.44,126.54 ZM 287.65 122.54 C287.13,121.18 291.20,117.00 293.03,117.00 C294.82,117.00 294.79,120.21 292.98,122.02 C290.64,124.36 288.43,124.57 287.65,122.54 ZM 299.00 113.93 C299.00,112.50 299.54,111.96 300.74,112.19 C303.35,112.69 303.64,116.00 301.07,116.00 C299.64,116.00 299.00,115.36 299.00,113.93 ZM 302.65 450.17 C299.12,446.27 301.24,439.00 305.91,439.00 C309.50,439.00 311.40,441.25 311.40,445.50 C311.40,451.48 306.30,454.20 302.65,450.17 ZM 366.00 449.50 C366.00,447.40 366.47,447.00 368.94,447.00 C370.56,447.00 372.17,447.47 372.53,448.04 C373.51,449.64 371.04,452.00 368.38,452.00 C366.51,452.00 366.00,451.47 366.00,449.50 ZM 366.00 441.07 C366.00,439.51 366.64,439.00 368.57,439.00 C371.86,439.00 371.56,442.35 368.24,442.82 C366.54,443.06 366.00,442.64 366.00,441.07 ZM 136.20 377.07 C136.69,368.72 138.46,364.96 141.90,365.03 C146.07,365.11 147.43,368.41 147.47,378.50 L 147.50 384.50 L 141.62 384.80 L 135.74 385.11 L 136.20 377.07 ZM 263.30 391.75 C268.30,362.60 268.11,362.94 271.31,377.03 C275.46,395.32 275.51,395.00 268.37,395.00 L 262.74 395.00 L 263.30 391.75 ZM 317.44 415.71 C317.17,415.00 317.07,407.24 317.22,398.46 L 317.50 382.50 L 320.31 382.18 C323.56,381.80 327.39,384.00 329.15,387.25 C333.87,395.99 332.86,409.06 327.06,414.24 C323.77,417.18 318.32,418.01 317.44,415.71 ZM 317.23 360.25 L 317.50 343.50 L 320.11 343.20 C326.67,342.44 331.87,352.32 330.72,363.37 C329.77,372.53 326.10,377.00 319.53,377.00 L 316.95 377.00 L 317.23 360.25 Z" fill="rgb(252,252,253)"/>
</g>
</svg>